<?xml version="1.0" encoding="utf-8"?>
<svg viewBox="182.2799 73.1981 47.5339 23.7265" xmlns="http://www.w3.org/2000/svg">
  <g clippath="url(#clip0_1_3559)" transform="matrix(1, 0, 0, 1, 182.27992248535156, 70.92420959472659)">
    <path d="M17.417 9.36841C17.417 5.90385 20.2756 3.09473 23.8026 3.09473C27.3296 3.09473 30.1883 5.90325 30.1883 9.36841C30.1883 12.8336 27.3296 15.6421 23.8026 15.6421C20.2756 15.6421 17.417 12.8336 17.417 9.36841Z" fill="#0067B4"/>
    <path d="M40.0149 3.77577L29.1682 15.34C27.392 17.0642 25.4874 17.6424 23.7784 17.6043C22.0694 17.643 20.1661 17.0648 18.388 15.34L7.33367 3.57235C3.47492 0.0161943 -2.09223 4.52043 0.804556 9.13588L12.2978 21.2366C15.5893 24.4454 19.6345 26.0662 23.7778 25.9984C27.9223 26.0656 31.9772 24.4502 35.305 21.1807L46.3249 9.40412C50.1049 5.32754 44.1873 -0.508992 40.0143 3.77517L40.0149 3.77577Z" fill="#0067B4"/>
  </g>
</svg>